# This file uses centimeters as units for non-parametric coordinates.

g default
v -2.217626 -0.127288 4.108930
v -2.548362 1.975168 4.042161
v -0.768128 2.303153 4.879007
v -0.437392 0.008980 4.945775
v -2.029664 -0.013749 3.981202
v -2.313152 1.866200 3.923972
v -0.787237 2.147330 4.641268
v -0.503749 0.079443 4.698498
v -1.841710 -0.054223 3.005052
v -2.077950 1.638644 2.957360
v -0.806354 1.872919 3.555107
v -0.570114 0.110878 3.602798
v -1.653749 0.097333 0.711200
v -1.842741 1.302862 0.673047
v -0.825465 1.422965 1.151244
v -0.636473 0.053940 1.189398
v -1.465804 0.017590 -2.331051
v -1.607548 0.748168 -2.359666
v -0.844591 0.779798 -2.001017
v -0.702847 0.046367 -1.972403
v -1.277813 -0.142274 -5.353613
v -1.372309 0.419304 -5.372689
v -0.863671 0.513013 -5.133590
v -0.769175 -0.048564 -5.114514
v -1.089879 -0.267507 -7.592654
v -1.137126 0.015959 -7.602194
v -0.882806 0.073580 -7.482646
v -0.835558 -0.209610 -7.473107
v -0.901904 -0.252703 -8.492147
v -1.825245 0.494299 3.576316
v -1.980553 1.625000 3.695131
v -0.932137 1.701206 3.238805
v -0.780983 0.512444 3.118932
v -1.809259 0.570689 3.445586
v -1.942380 1.550825 3.547428
v -1.047298 1.629132 3.155384
v -0.914177 0.546594 3.053542
v -2.085479 0.453183 2.882304
v -2.200585 1.281966 2.950170
v -1.405204 1.300390 2.694347
v -1.289538 0.407109 2.624961
v -2.263616 0.086690 1.340731
v -2.372173 0.752052 1.369833
v -1.718985 0.789213 1.356006
v -1.610992 0.043159 1.327316
v -2.945631 0.464400 -0.288991
v -3.026626 0.961359 -0.267471
v -2.538131 0.979690 -0.276976
v -2.457136 0.554632 -0.298495
v -3.623865 -0.055348 -1.907752
v -3.677862 0.270113 -1.893406
v -3.352198 0.325615 -1.899745
v -3.298202 -0.001038 -1.914088
v -4.100993 -0.127926 -3.119386
v -4.127991 0.036355 -3.112215
v -3.965160 0.069750 -3.115384
v -3.938161 -0.094372 -3.122556
v -4.234230 -0.119347 -3.635011
vt 0.502448 0.933135
vt 0.481408 0.799387
vt 0.496371 0.806319
vt 0.514405 0.925912
vt 0.292581 0.055140
vt 0.405830 0.001904
vt 0.404615 0.017028
vt 0.307544 0.062659
vt 0.403399 0.086124
vt 0.322506 0.124150
vt 0.402183 0.239046
vt 0.337469 0.269466
vt 0.400966 0.439577
vt 0.352431 0.462392
vt 0.399752 0.638855
vt 0.367395 0.654065
vt 0.398535 0.788290
vt 0.382357 0.795895
vt 0.397320 0.852510
vt 0.164583 0.852510
vt 0.018639 0.856757
vt 0.023121 0.841026
vt 0.154670 0.837386
vt 0.025121 0.771324
vt 0.137213 0.768290
vt 0.021499 0.617795
vt 0.108590 0.615368
vt 0.021017 0.416657
vt 0.067675 0.414837
vt 0.014978 0.216772
vt 0.050703 0.215559
vt 0.004733 0.066730
vt 0.022749 0.066124
vt 0.001992 0.001904
vt 0.284995 0.856757
vt 0.171746 0.803521
vt 0.183703 0.795396
vt 0.280774 0.841026
vt 0.195660 0.733298
vt 0.276552 0.771324
vt 0.207617 0.587375
vt 0.272331 0.617795
vt 0.219573 0.393842
vt 0.268108 0.416657
vt 0.231532 0.201562
vt 0.263889 0.216772
vt 0.243487 0.059125
vt 0.259666 0.066730
vt 0.255445 0.001904
vt 0.429559 0.001904
vt 0.549151 0.005545
vt 0.534676 0.067036
vt 0.426984 0.064002
vt 0.513315 0.212352
vt 0.436625 0.209925
vt 0.478028 0.405278
vt 0.431552 0.403458
vt 0.457107 0.596951
vt 0.421382 0.595738
vt 0.431448 0.738781
vt 0.413416 0.738174
vt 0.414358 0.795396
vt 0.541580 0.799387
vt 0.654830 0.808056
vt 0.633790 0.954000
vt 0.520541 0.933135
vt 0.595272 0.009463
vt 0.667202 0.001904
vt 0.662483 0.011300
vt 0.600132 0.017779
vt 0.645380 0.049295
vt 0.592657 0.053612
vt 0.611669 0.149828
vt 0.569342 0.151679
vt 0.624984 0.253985
vt 0.593370 0.255354
vt 0.581011 0.357419
vt 0.560306 0.358331
vt 0.566140 0.434953
vt 0.555689 0.435409
vt 0.556235 0.468211
vt 0.817943 0.001904
vt 0.884638 0.030933
vt 0.877312 0.036240
vt 0.820371 0.011300
vt 0.854544 0.065569
vt 0.803946 0.049295
vt 0.834583 0.150708
vt 0.793030 0.149828
vt 0.782473 0.254590
vt 0.751397 0.253985
vt 0.730686 0.357822
vt 0.709969 0.357419
vt 0.691692 0.435155
vt 0.681334 0.434953
vt 0.674575 0.468211
vt 0.383211 0.856501
vt 0.392827 0.932124
vt 0.384354 0.929952
vt 0.375886 0.861086
vt 0.998008 0.901854
vt 0.931577 0.930950
vt 0.932594 0.922634
vt 0.989535 0.897694
vt 0.915023 0.886801
vt 0.965656 0.870430
vt 0.903690 0.788734
vt 0.945207 0.787880
vt 0.860304 0.685059
vt 0.891380 0.684454
vt 0.817158 0.582082
vt 0.837875 0.581679
vt 0.786806 0.505004
vt 0.797164 0.504802
vt 0.778330 0.472202
vt 0.772195 0.904173
vt 0.703329 0.897694
vt 0.694456 0.870430
vt 0.751282 0.874844
vt 0.671303 0.787880
vt 0.718763 0.789706
vt 0.703840 0.684454
vt 0.730880 0.685823
vt 0.668491 0.581679
vt 0.689271 0.582591
vt 0.662554 0.504802
vt 0.672995 0.505258
vt 0.660965 0.472202
vt 0.408842 0.856501
vt 0.475273 0.857655
vt 0.465657 0.933278
vt 0.398962 0.928430
vn -0.164531 -0.624996 -0.763092
vn -0.240106 0.443007 -0.863767
vn -0.509880 0.552109 -0.659695
vn -0.407980 -0.763500 -0.500620
vn 0.663999 0.590356 -0.458895
vn 0.655638 0.673706 -0.340967
vn 0.785159 -0.500597 -0.364594
vn 0.795294 -0.568518 -0.210463
vn -0.759251 0.601068 -0.249509
vn -0.616794 -0.781076 -0.097395
vn 0.629952 0.757851 -0.169771
vn 0.776128 -0.629640 -0.034329
vn -0.764020 0.618013 -0.185291
vn -0.638239 -0.768420 -0.046695
vn 0.640367 0.755120 -0.140441
vn 0.763886 -0.644876 -0.024747
vn -0.769309 0.620953 -0.150270
vn -0.630031 -0.776404 -0.016044
vn 0.636332 0.763132 -0.112743
vn 0.773935 -0.633263 0.001327
vn -0.785541 0.599895 -0.151823
vn -0.595007 -0.803693 -0.006604
vn 0.612120 0.782090 -0.116814
vn 0.803319 -0.595316 0.016645
vn -0.769044 0.575666 -0.277813
vn -0.563952 -0.823162 -0.066048
vn 0.609403 0.766129 -0.204145
vn 0.820077 -0.572224 -0.005748
vn -0.421310 -0.035862 0.906207
vn -0.421310 -0.035862 0.906207
vn -0.421310 -0.035862 0.906207
vn -0.421310 -0.035862 0.906207
vn -0.964448 -0.167628 -0.204307
vn -0.071509 0.949492 -0.305535
vn 0.984267 0.161826 -0.070926
vn 0.209494 -0.977418 0.027693
vn -0.701339 -0.615634 -0.359330
vn -0.784905 0.467840 -0.406264
vn -0.825535 0.525775 -0.205069
vn -0.677761 -0.734655 0.030349
vn 0.136839 0.600339 -0.787952
vn 0.232542 0.634823 -0.736834
vn 0.209330 -0.502323 -0.838959
vn 0.421632 -0.614844 -0.666478
vn -0.815208 0.577932 -0.037806
vn -0.586968 -0.729896 0.350313
vn 0.453037 0.703588 -0.547469
vn 0.705179 -0.680906 -0.197713
vn -0.778961 0.614828 0.123313
vn -0.632549 -0.757804 0.160048
vn 0.577386 0.760206 -0.297845
vn 0.724046 -0.629520 -0.281891
vn -0.755272 0.617151 0.220657
vn -0.561843 -0.786568 0.256211
vn 0.536165 0.755771 -0.375949
vn 0.725575 -0.587454 -0.358383
vn -0.789487 0.600596 0.126471
vn -0.503932 -0.788296 0.353046
vn 0.475766 0.741745 -0.472716
vn 0.759960 -0.588688 -0.275513
vn -0.812868 0.575180 0.091729
vn -0.534866 -0.823162 0.190583
vn 0.455452 0.766358 -0.453055
vn 0.732639 -0.572305 -0.368384
vn 0.401362 -0.041129 0.914995
vn 0.401362 -0.041129 0.914995
vn 0.401362 -0.041129 0.914995
vn 0.401362 -0.041129 0.914995
vn -0.955172 -0.167628 0.244025
vn -0.199444 0.949492 -0.242254
vn 0.851027 0.161827 -0.499564
vn 0.200089 -0.977417 -0.067966
s 1
g polySurface1
f 1/1/1 2/2/2 6/3/3 5/4/4
f 2/5/2 3/6/5 7/7/6 6/8/3
f 3/20/5 4/21/7 8/22/8 7/23/6
f 4/35/7 1/36/1 5/37/4 8/38/8
f 5/50/4 6/51/3 10/52/9 9/53/10
f 6/8/3 7/7/6 11/9/11 10/10/9
f 7/23/6 8/22/8 12/24/12 11/25/11
f 8/38/8 5/37/4 9/39/10 12/40/12
f 9/53/10 10/52/9 14/54/13 13/55/14
f 10/10/9 11/9/11 15/11/15 14/12/13
f 11/25/11 12/24/12 16/26/16 15/27/15
f 12/40/12 9/39/10 13/41/14 16/42/16
f 13/55/14 14/54/13 18/56/17 17/57/18
f 14/12/13 15/11/15 19/13/19 18/14/17
f 15/27/15 16/26/16 20/28/20 19/29/19
f 16/42/16 13/41/14 17/43/18 20/44/20
f 17/57/18 18/56/17 22/58/21 21/59/22
f 18/14/17 19/13/19 23/15/23 22/16/21
f 19/29/19 20/28/20 24/30/24 23/31/23
f 20/44/20 17/43/18 21/45/22 24/46/24
f 21/59/22 22/58/21 26/60/25 25/61/26
f 22/16/21 23/15/23 27/17/27 26/18/25
f 23/31/23 24/30/24 28/32/28 27/33/27
f 24/46/24 21/45/22 25/47/26 28/48/28
s off
f 1/63/29 4/64/30 3/65/31 2/66/32
s 1
f 25/61/26 26/60/25 29/62/33
f 26/18/25 27/17/27 29/19/34
f 27/33/27 28/32/28 29/34/35
f 28/48/28 25/47/26 29/49/36
s 2
f 30/67/37 31/68/38 35/69/39 34/70/40
f 31/82/38 32/83/41 36/84/42 35/85/39
f 32/97/41 33/98/43 37/99/44 36/100/42
f 33/101/43 30/102/37 34/103/40 37/104/44
f 34/70/40 35/69/39 39/71/45 38/72/46
f 35/85/39 36/84/42 40/86/47 39/87/45
f 36/116/42 37/117/44 41/118/48 40/119/47
f 37/104/44 34/103/40 38/105/46 41/106/48
f 38/72/46 39/71/45 43/73/49 42/74/50
f 39/87/45 40/86/47 44/88/51 43/89/49
f 40/119/47 41/118/48 45/120/52 44/121/51
f 41/106/48 38/105/46 42/107/50 45/108/52
f 42/74/50 43/73/49 47/75/53 46/76/54
f 43/89/49 44/88/51 48/90/55 47/91/53
f 44/121/51 45/120/52 49/122/56 48/123/55
f 45/108/52 42/107/50 46/109/54 49/110/56
f 46/76/54 47/75/53 51/77/57 50/78/58
f 47/91/53 48/90/55 52/92/59 51/93/57
f 48/123/55 49/122/56 53/124/60 52/125/59
f 49/110/56 46/109/54 50/111/58 53/112/60
f 50/78/58 51/77/57 55/79/61 54/80/62
f 51/93/57 52/92/59 56/94/63 55/95/61
f 52/125/59 53/124/60 57/126/64 56/127/63
f 53/112/60 50/111/58 54/113/62 57/114/64
s off
f 30/129/65 33/130/66 32/131/67 31/132/68
s 2
f 54/80/62 55/79/61 58/81/69
f 55/95/61 56/94/63 58/96/70
f 56/127/63 57/126/64 58/128/71
f 57/114/64 54/113/62 58/115/72
